<svg xmlns="http://www.w3.org/2000/svg" viewBox="0 0 400.19 38.56"><defs><style>.cls-1{fill:#fff;}</style></defs><g id="Layer_2" data-name="Layer 2"><g id="Layer_1-2" data-name="Layer 1"><path class="cls-1" d="M28.35,37.88,24.91,27.2H9.64L6.25,37.88H0L12.35.68h10l12.41,37.2ZM16.1,6.77,11.41,21.62H23.08L18.34,6.77Z"/><path class="cls-1" d="M48.62.68h17q6,0,9.36,2.94c2.2,2,3.31,4.72,3.31,8.26q0,6.93-5.58,9.74l5.73,16.26H72.07L66.8,23a30.93,30.93,0,0,1-3.28.1H54.87v14.8H48.62ZM54.87,6.2V17.66h9.85q7.19,0,7.19-5.73a5.37,5.37,0,0,0-1.67-4.3Q68.57,6.21,64.72,6.2Z"/><path class="cls-1" d="M94.37,37.88V.68h9.9L112,16.88h1.25L120.84.68h9.95v37.2h-5.94V8.13H123.6l-7.87,16.31h-6.36L101.56,8.13h-1.25V37.88Z"/><path class="cls-1" d="M152.31,32h20.27v5.89H146.06V.68h6.25Z"/><path class="cls-1" d="M191.76,32.2h21.15v5.68H185.5V.68h26.74V6.36H191.76V16H208v5.57h-16.2Z"/><path class="cls-1" d="M240.11,16.57h1.46L250.48.68h6.73L244,24.18v13.7h-6.25V24.18L224.48.68h6.72Z"/><path class="cls-1" d="M340.42.68V6.2H328.54V37.88h-6.25V6.2H310.36V.68Z"/><path class="cls-1" d="M355,37.88h-6.72v-7H355Z"/><path class="cls-1" d="M393.62,26.63h6.57a13.74,13.74,0,0,1-4.95,8.67A15.64,15.64,0,0,1,385,38.56q-8.23,0-12.87-5.34t-4.64-13.94q0-8.6,4.66-13.94T385.08,0a15.63,15.63,0,0,1,9.77,3,13,13,0,0,1,4.92,8h-6.56q-1.77-5.31-8.13-5.31a9.75,9.75,0,0,0-8.34,3.86,15.87,15.87,0,0,0-2.86,9.74A15.93,15.93,0,0,0,376.72,29q2.83,3.87,8.31,3.86a9.27,9.27,0,0,0,5.65-1.64A7.81,7.81,0,0,0,393.62,26.63Z"/></g></g></svg>